# xmcd CD database file
#
# Track frame offsets:
#	150
#	22392
#	43872
#	70937
#	94735
#	117237
#	139845
#	158747
#
# Disc length: 2518 seconds
#
# Revision: 4
# Processed by: cddbd v1.5.2PL0 Copyright (c) Steve Scherf et al.
# Submitted via: CDex 1.51
#
DISCID=7009d408
DTITLE=Taj Mahal - Music Fuh Ya' (Musica Para Tu)
DYEAR=1977
DGENRE=Blues
TTITLE0=You Got It
TTITLE1=Freight Train
TTITLE2=Baby, You're My Destiny
TTITLE3=Sailin' Into Walker's Cay
TTITLE4=Truck Driver's Two Step
TTITLE5=The Four Mills Brothers
TTITLE6=Honey Babe
TTITLE7=Curry
EXTD=YEAR: 1977
EXTT0=
EXTT1=
EXTT2=
EXTT3=
EXTT4=
EXTT5=
EXTT6=
EXTT7=
PLAYORDER=
